<?xml version="1.0" encoding="UTF-8" standalone="no"?>
<!-- Created with Inkscape (http://www.inkscape.org/) -->

<svg
   width="48"
   height="48"
   viewBox="0 0 1.1999991 1.1999991"
   version="1.1"
   id="svg1"
   xmlns="http://www.w3.org/2000/svg"
   xmlns:svg="http://www.w3.org/2000/svg">
  <defs
     id="defs1" />
  <g
     id="layer1">
    <path
       style="fill:none;stroke:#66ccff;stroke-width:0.0237425;stroke-dasharray:none;stroke-opacity:0.153144"
       id="path2"
       d="M 0.1151884,1.0086553 A 0.30285823,0.31001002 0 0 1 -0.18665203,1.3173442 0.30285823,0.31001002 0 0 1 -0.49050713,1.0107333"
       transform="matrix(0.58665367,-0.80983793,0.84304364,0.53784516,0,0)" />
    <path
       style="fill:#66ccff;fill-opacity:0.399851"
       d="M 0.99804688,0.27539063 0.44335938,1.046875 c -0.0180755,0.026917 0.0171035,0.037816 0.0292969,0.021484 L 1.0273437,0.296875 c 0.014653,-0.0202007 -0.00926,-0.0437283 -0.0292968,-0.0214844 z"
       id="path3" />
    <path
       style="fill:#66ccff"
       d="m 0.6015625,-0.84375 c 0,0.24737354 -0.19633615,0.446193 -0.4375,0.44726562 -0.24116385,0.001073 -0.43735046,-0.19599523 -0.43945313,-0.44335937 h -0.0351563 c 0.002263,0.2661855 0.21374853,0.47967585 0.47460938,0.47851562 C 0.4249233,-0.36248813 0.6367187,-0.57755448 0.6367187,-0.84375 Z"
       id="path4"
       transform="matrix(-0.58600935,0.81030429,-0.84263491,-0.5384853,0,0)" />
    <path
       style="font-size:0.450404px;fill:#66ccff;fill-opacity:0.797154;stroke-width:0.0375926;stroke-opacity:0.153144"
       d="m 0.60985613,0.63445645 c 0.0139625,0 0.0279837,0.004499 0.0333299,-0.005405 0.004937,-0.009146 0.004474,-0.0287763 -0.005855,-0.0315283 -0.009742,-0.002596 -0.0153137,0.002702 -0.0193674,0.002702 -0.0153137,0 -0.0229706,-0.006756 -0.0229706,-0.0238714 0,-0.0238714 4.504e-4,-0.10269211 0.003603,-0.1585422 0,0 0.0261878,-1.679e-4 0.049094,0 0.0112596,8.253e-5 0.0112596,-0.0337018 0,-0.0337797 -0.0676666,-4.6828e-4 -0.23556125,0 -0.23556125,0 0,0 -0.0221057,2.0397e-4 -0.0351315,0.002252 -0.009103,0.001431 -0.0105078,0.0317105 0,0.0315283 0.0209618,-3.6336e-4 0.0567509,0 0.0567509,0 0,0.0662094 -0.0117841,0.11640876 -0.0175657,0.21078906 -8.4577e-4,0.0138067 0.0397147,0.0159771 0.0414372,0.002252 0.009734,-0.0775627 0.0139625,-0.14412927 0.0139625,-0.21304108 h 0.0878288 c -9.008e-4,0.0540485 -0.003153,0.13016675 -0.003153,0.15583978 0,0.0391851 0.0148633,0.0608045 0.0535982,0.0608045 z"
       id="text5"
       aria-label="π" />
    <path
       style="font-weight:bold;font-size:0.156579px;font-family:MiSans;-inkscape-font-specification:'MiSans Bold';fill:#66ccff;fill-opacity:0.200911;stroke-width:0.0130688;stroke-opacity:0.153144"
       d="m 0.88681211,0.7776714 c 0.0111171,-0.0115869 0.0184763,-0.0236434 0.0184763,-0.0377355 0,-0.0225474 -0.0155013,-0.0382053 -0.0419632,-0.0382053 -0.0242697,1.5658e-4 -0.037579,0.0137789 -0.043529,0.0272448 l 0.022704,0.0155013 c 0.004541,-0.0106474 0.0106474,-0.0161276 0.0198855,-0.0161276 0.008768,0 0.0131526,0.00548 0.0131526,0.0131526 0,0.006576 -0.002505,0.0123697 -0.0114303,0.0216079 l -0.0441553,0.0452513 v 0.0192592 h 0.0878408 V 0.8003754 h -0.0429026 z"
       id="text6"
       aria-label="2" />
    <ellipse
       style="fill:#66ccff;fill-opacity:1;stroke:none;stroke-width:0.00852433;stroke-dasharray:none;stroke-opacity:0.153144"
       id="path6"
       cx="0.88025743"
       cy="0.21570173"
       rx="0.017001983"
       ry="0.017873131" />
    <circle
       style="fill:#66ccff;fill-opacity:1;stroke:none;stroke-width:0.0250392;stroke-dasharray:none;stroke-opacity:0.153144"
       id="path7"
       cx="0.34807181"
       cy="0.95605254"
       r="0.017174596" />
  </g>
</svg>
